<?xml version="1.0" encoding="utf-8"?>
<!-- Generator: Adobe Illustrator 26.1.0, SVG Export Plug-In . SVG Version: 6.00 Build 0)  -->
<svg version="1.1" id="Capa_1" xmlns="http://www.w3.org/2000/svg" xmlns:xlink="http://www.w3.org/1999/xlink" x="0px" y="0px"
	 viewBox="0 0 312 312" style="enable-background:new 0 0 312 312;" xml:space="preserve">
<style type="text/css">
</style>
<path class="st0" d="M143.22,296.52L71.91,121.96C67.34,110.77,72.7,98,83.89,93.43L133,73.37c11.19-4.57,23.96,0.79,28.53,11.98
	l71.31,174.56c4.57,11.19-0.79,23.96-11.98,28.53l-49.11,20.06C160.56,313.07,147.79,307.71,143.22,296.52z"/>
<path class="st1" d="M82.79,100.29l-1.19-2.9c-0.24-0.59,0.04-1.28,0.64-1.52l52.85-21.59c0.59-0.24,1.28,0.04,1.52,0.64l1.19,2.9
	c0.24,0.59-0.04,1.28-0.64,1.52l-52.85,21.59C83.72,101.17,83.03,100.88,82.79,100.29z"/>
<ellipse transform="matrix(0.9257 -0.3782 0.3782 0.9257 -19.742 55.0909)" class="st2" cx="130.39" cy="77.81" rx="0.86" ry="0.72"/>
<ellipse transform="matrix(0.9257 -0.3782 0.3782 0.9257 -20.7222 55.3366)" class="st2" cx="130.53" cy="80.43" rx="0.86" ry="0.72"/>
<ellipse transform="matrix(0.9257 -0.3782 0.3782 0.9257 -19.1926 55.9263)" class="st2" cx="132.79" cy="76.83" rx="0.86" ry="0.72"/>
<ellipse transform="matrix(0.9257 -0.3782 0.3782 0.9257 -20.3437 54.1759)" class="st2" cx="127.76" cy="78.88" rx="0.86" ry="0.72"/>
<ellipse transform="matrix(0.9257 -0.3782 0.3782 0.9257 -21.324 54.4217)" class="st2" cx="127.9" cy="81.5" rx="0.86" ry="0.72"/>
<ellipse transform="matrix(0.9257 -0.3782 0.3782 0.9257 -20.8932 53.3405)" class="st2" cx="125.36" cy="79.86" rx="0.86" ry="0.72"/>
<ellipse transform="matrix(0.9257 -0.3782 0.3782 0.9257 -21.8734 53.5863)" class="st2" cx="125.49" cy="82.48" rx="0.86" ry="0.72"/>
<ellipse transform="matrix(0.9257 -0.3782 0.3782 0.9257 -21.4949 52.4256)" class="st2" cx="122.73" cy="80.94" rx="0.86" ry="0.72"/>
<ellipse transform="matrix(0.9257 -0.3782 0.3782 0.9257 -22.4751 52.6713)" class="st2" cx="122.86" cy="83.56" rx="0.86" ry="0.72"/>
<ellipse transform="matrix(0.9257 -0.3782 0.3782 0.9257 -22.0443 51.5902)" class="st2" cx="120.33" cy="81.92" rx="0.86" ry="0.72"/>
<ellipse transform="matrix(0.9257 -0.3782 0.3782 0.9257 -23.0246 51.8359)" class="st2" cx="120.46" cy="84.54" rx="0.86" ry="0.72"/>
<ellipse transform="matrix(0.9257 -0.3782 0.3782 0.9257 -22.6461 50.6752)" class="st2" cx="117.7" cy="82.99" rx="0.86" ry="0.72"/>
<ellipse transform="matrix(0.9257 -0.3782 0.3782 0.9257 -23.6263 50.921)" class="st2" cx="117.83" cy="85.61" rx="0.86" ry="0.72"/>
<ellipse transform="matrix(0.9257 -0.3782 0.3782 0.9257 -23.1955 49.8398)" class="st2" cx="115.29" cy="83.98" rx="0.86" ry="0.72"/>
<ellipse transform="matrix(0.9257 -0.3782 0.3782 0.9257 -24.1757 50.0856)" class="st2" cx="115.43" cy="86.59" rx="0.86" ry="0.72"/>
<ellipse transform="matrix(0.9257 -0.3782 0.3782 0.9257 -23.7972 48.9249)" class="st2" cx="112.66" cy="85.05" rx="0.86" ry="0.72"/>
<ellipse transform="matrix(0.9257 -0.3782 0.3782 0.9257 -24.7775 49.1706)" class="st2" cx="112.8" cy="87.67" rx="0.86" ry="0.72"/>
<ellipse transform="matrix(0.9257 -0.3782 0.3782 0.9257 -24.3205 48.1292)" class="st2" cx="110.38" cy="85.98" rx="0.86" ry="0.72"/>
<ellipse transform="matrix(0.9257 -0.3782 0.3782 0.9257 -25.3932 46.4982)" class="st2" cx="105.69" cy="87.9" rx="0.86" ry="0.72"/>
<ellipse transform="matrix(0.9257 -0.3782 0.3782 0.9257 -24.8438 47.3336)" class="st2" cx="108.09" cy="86.92" rx="0.86" ry="0.72"/>
<ellipse transform="matrix(0.9257 -0.3782 0.3782 0.9257 -25.9949 45.5833)" class="st2" cx="103.06" cy="88.97" rx="0.86" ry="0.72"/>
<ellipse transform="matrix(0.9257 -0.3782 0.3782 0.9257 -26.5444 44.7479)" class="st2" cx="100.66" cy="89.96" rx="0.86" ry="0.72"/>
<ellipse transform="matrix(0.9257 -0.3782 0.3782 0.9257 -27.1461 43.8329)" class="st2" cx="98.03" cy="91.03" rx="0.86" ry="0.72"/>
<ellipse transform="matrix(0.9257 -0.3782 0.3782 0.9257 -27.6955 42.9975)" class="st2" cx="95.62" cy="92.01" rx="0.86" ry="0.72"/>
<ellipse transform="matrix(0.9257 -0.3782 0.3782 0.9257 -28.2973 42.0826)" class="st2" cx="92.99" cy="93.09" rx="0.86" ry="0.72"/>
<ellipse transform="matrix(0.9257 -0.3782 0.3782 0.9257 -28.8467 41.2472)" class="st2" cx="90.59" cy="94.07" rx="0.86" ry="0.72"/>
<ellipse transform="matrix(0.9257 -0.3782 0.3782 0.9257 -29.4484 40.3322)" class="st2" cx="87.96" cy="95.14" rx="0.86" ry="0.72"/>
<ellipse transform="matrix(0.9257 -0.3782 0.3782 0.9257 -29.9717 39.5366)" class="st2" cx="85.67" cy="96.08" rx="0.86" ry="0.72"/>
<ellipse transform="matrix(0.9257 -0.3782 0.3782 0.9257 -25.3792 48.2557)" class="st2" cx="110.17" cy="88.74" rx="0.86" ry="0.72"/>
<ellipse transform="matrix(0.9257 -0.3782 0.3782 0.9257 -25.981 47.3407)" class="st2" cx="107.54" cy="89.82" rx="0.86" ry="0.72"/>
<ellipse transform="matrix(0.9257 -0.3782 0.3782 0.9257 -26.5304 46.5053)" class="st2" cx="105.14" cy="90.8" rx="0.86" ry="0.72"/>
<ellipse transform="matrix(0.9257 -0.3782 0.3782 0.9257 -27.1321 45.5904)" class="st2" cx="102.51" cy="91.87" rx="0.86" ry="0.72"/>
<ellipse transform="matrix(0.9257 -0.3782 0.3782 0.9257 -27.6816 44.755)" class="st2" cx="100.11" cy="92.86" rx="0.86" ry="0.72"/>
<ellipse transform="matrix(0.9257 -0.3782 0.3782 0.9257 -28.2833 43.84)" class="st2" cx="97.48" cy="93.93" rx="0.86" ry="0.72"/>
<ellipse transform="matrix(0.9257 -0.3782 0.3782 0.9257 -28.8327 43.0046)" class="st2" cx="95.07" cy="94.91" rx="0.86" ry="0.72"/>
<ellipse transform="matrix(0.9257 -0.3782 0.3782 0.9257 -29.4345 42.0896)" class="st2" cx="92.44" cy="95.99" rx="0.86" ry="0.72"/>
<linearGradient id="SVGID_1_" gradientUnits="userSpaceOnUse" x1="159.243" y1="-59.5918" x2="377.3885" y2="-59.5918" gradientTransform="matrix(0.3782 0.9257 -0.9257 0.3782 -2.824 -31.5315)">
	<stop  offset="0.1798" style="stop-color:#1E1E1C"/>
	<stop  offset="0.3274" style="stop-color:#21211F"/>
	<stop  offset="0.4946" style="stop-color:#282827"/>
	<stop  offset="0.6714" style="stop-color:#353534"/>
	<stop  offset="0.8537" style="stop-color:#474746"/>
	<stop  offset="0.9832" style="stop-color:#585857"/>
</linearGradient>
<path class="st3" d="M145.56,295.26L77.25,128.03c-3.92-9.59,0.68-20.53,10.27-24.45l50.1-20.47c9.59-3.92,20.53,0.68,24.45,10.27
	l68.32,167.23c3.92,9.59-0.68,20.53-10.27,24.45l-50.1,20.47C160.43,309.44,149.48,304.85,145.56,295.26z"/>
<linearGradient id="SVGID_00000124155129251455625470000000495707900747106437_" gradientUnits="userSpaceOnUse" x1="184.2929" y1="284.5753" x2="201.9792" y2="284.5753">
	<stop  offset="0.153" style="stop-color:#B3B2B2"/>
	<stop  offset="0.3343" style="stop-color:#B7B6B6"/>
	<stop  offset="0.5398" style="stop-color:#C4C3C3"/>
	<stop  offset="0.7569" style="stop-color:#D8D7D7"/>
	<stop  offset="0.9809" style="stop-color:#F6F5F6"/>
	<stop  offset="0.9832" style="stop-color:#F6F6F6"/>
</linearGradient>
<circle style="fill:none;stroke:url(#SVGID_00000124155129251455625470000000495707900747106437_);stroke-width:0.5;stroke-miterlimit:10;" cx="193.14" cy="284.58" r="8.59"/>
<linearGradient id="SVGID_00000140008961118120897690000016362205589437106334_" gradientUnits="userSpaceOnUse" x1="187.5934" y1="284.5753" x2="198.6787" y2="284.5753">
	<stop  offset="0.153" style="stop-color:#B3B2B2"/>
	<stop  offset="0.3343" style="stop-color:#B7B6B6"/>
	<stop  offset="0.5398" style="stop-color:#C4C3C3"/>
	<stop  offset="0.7569" style="stop-color:#D8D7D7"/>
	<stop  offset="0.9809" style="stop-color:#F6F5F6"/>
	<stop  offset="0.9832" style="stop-color:#F6F6F6"/>
</linearGradient>
<circle style="fill:url(#SVGID_00000140008961118120897690000016362205589437106334_);" cx="193.14" cy="284.58" r="5.54"/>
<linearGradient id="SVGID_00000126314688669088629890000006260070438664920249_" gradientUnits="userSpaceOnUse" x1="149.6585" y1="57.5582" x2="149.6585" y2="57.5582">
	<stop  offset="2.770450e-07" style="stop-color:#83378D"/>
	<stop  offset="1" style="stop-color:#3BA9E0"/>
</linearGradient>
<path style="fill:none;stroke:url(#SVGID_00000126314688669088629890000006260070438664920249_);stroke-width:2;stroke-miterlimit:10;" d="
	M149.66,57.56"/>
<linearGradient id="SVGID_00000147917095355937644780000013930674858528702358_" gradientUnits="userSpaceOnUse" x1="217.9101" y1="-242.3692" x2="371.8371" y2="-242.3692" gradientTransform="matrix(0.9999 -0.0102 0.0102 0.9999 -128.1855 270.594)">
	<stop  offset="0" style="stop-color:#FBEBD7"/>
	<stop  offset="1" style="stop-color:#D8CBB9"/>
</linearGradient>
<path style="fill:url(#SVGID_00000147917095355937644780000013930674858528702358_);stroke:#1E1E1C;stroke-width:2;stroke-linecap:round;stroke-linejoin:round;stroke-miterlimit:10;" d="
	M163.51,4.8l1.02-0.01L212.3,4.3l14.23-0.15c0,0,14.3,2.87,14.61,19.53c0,0,1.3,21.55-18.9,21.34c0,0-17.48,2.1-18.24-17.28
	l-39.24,0.4l-1.02,0.01l-39.26,0.4c-0.37,19.39-17.9,17.65-17.9,17.65c-20.2,0.62-19.34-20.95-19.34-20.95
	C87.22,8.6,101.46,5.43,101.46,5.43l14.24-0.15L163.51,4.8"/>
<path class="st8" d="M131.64,16.07c0,0-2.18-10.39-16.92-10.38c0,0-11.93,1.32-13.15,10.69c0,0-2.71,17.75,13.43,17.18
	c0,0,11.75-0.99,11.8-10.91c0,0-0.86-10.74-10.34-10.27c0,0-9.21-0.56-8.16,9.66c0,0,0.15,6.43,6.22,6.37c0,0,5.87,0.41,6-5.69
	c0,0,0.03-3.14-3.98-3.1"/>
<line class="st8" x1="170.94" y1="7.23" x2="116.4" y2="7.78"/>
<polyline class="st8" points="171.05,17.66 131.64,18.07 130.16,14.76 "/>
<path class="st8" d="M210.44,15.26c0,0,1.97-10.44,16.7-10.72c0,0,11.94,1.08,13.35,10.42c0,0,3.07,17.7-13.07,17.45
	c0,0-11.76-0.75-12.02-10.67c0,0,0.64-10.75,10.12-10.48c0,0,9.2-0.75,8.35,9.49c0,0-0.02,6.43-6.09,6.49c0,0-5.85,0.53-6.11-5.57
	c0,0-0.1-3.14,3.91-3.18"/>
<line class="st8" x1="170.94" y1="7.23" x2="225.46" y2="6.67"/>
<polyline class="st8" points="171.05,17.66 210.44,17.26 211.85,13.92 "/>
<linearGradient id="SVGID_00000121248369770763427760000017955229502168771223_" gradientUnits="userSpaceOnUse" x1="222.2861" y1="-244.9185" x2="376.213" y2="-244.9185" gradientTransform="matrix(0.9999 -0.0102 0.0102 0.9999 -128.1855 270.594)">
	<stop  offset="1.385225e-07" style="stop-color:#D8CBB9"/>
	<stop  offset="0.011" style="stop-color:#DACDBB"/>
	<stop  offset="0.1229" style="stop-color:#E8DAC7"/>
	<stop  offset="0.2617" style="stop-color:#F3E4D1"/>
	<stop  offset="0.4572" style="stop-color:#F9EAD6"/>
	<stop  offset="1" style="stop-color:#FBEBD7"/>
</linearGradient>
<path style="fill:url(#SVGID_00000121248369770763427760000017955229502168771223_);stroke:#1E1E1C;stroke-width:2;stroke-linecap:round;stroke-linejoin:round;stroke-miterlimit:10;" d="
	M167.85,2.21l1.02-0.01l47.78-0.49l14.23-0.15c0,0,14.3,2.87,14.61,19.53c0,0,1.3,21.55-18.9,21.34c0,0-17.48,2.1-18.24-17.28
	l-39.24,0.4l-1.02,0.01l-39.26,0.4c-0.37,19.39-17.9,17.65-17.9,17.65c-20.2,0.62-19.34-20.95-19.34-20.95
	C91.57,6,105.81,2.84,105.81,2.84l14.24-0.15L167.85,2.21"/>
<path class="st10" d="M129.62,18.13c0,0-2.18-10.39-16.92-10.38c0,0-11.93,1.32-13.15,10.69c0,0-2.71,17.75,13.43,17.18
	c0,0,11.75-0.99,11.8-10.91c0,0-0.86-10.74-10.34-10.27c0,0-9.21-0.56-8.16,9.66c0,0,0.15,6.43,6.22,6.37
	c0.01-0.03,6.32-0.02,6.29-5.71c0.06,1.06,0.21-3.76-3.94-3.69c-4.17,0.59-5.37,5.16-2.2,3.71c0,0,1-1.85,2.22-1.57
	c0,0,1.67,0.12,2.05,0.93c0.46,4.75-4.43,4.9-4.5,4.93c-4.67-0.25-4.75-5.84-4.67-5.45c-0.95-8.45,8.02-7.97,7.46-7.98
	c8.08,1.14,8.12,9.75,8.16,9.03c0.05,8.33-10.22,9.25-10.23,9.3c-14.38,0.7-12.32-15.06-11.98-15.2c1.06-8.11,11.49-9.08,11.71-9.02
	c12.7-0.01,14.6,8.84,14.6,8.84L129.62,18.13"/>
<line class="st11" x1="168.93" y1="9.29" x2="114.38" y2="9.84"/>
<line class="st11" x1="168.93" y1="9.29" x2="223.44" y2="8.73"/>
<polyline class="st11" points="169.03,19.72 208.42,19.32 209.84,15.98 128.14,16.82 129.62,20.13 169.03,19.72 "/>
<path class="st8" d="M167.85,4.21"/>
<path class="st10" d="M208.42,17.44c0,0,1.97-10.44,16.71-10.72c0,0,11.95,1.08,13.36,10.42c0,0,3.08,17.7-13.07,17.45
	c0,0-11.77-0.75-12.02-10.67c0,0,0.64-10.75,10.13-10.48c0,0,9.2-0.75,8.36,9.49c0,0-0.02,6.43-6.09,6.49
	c-0.01-0.03-6.32,0.11-6.4-5.58c-0.04,1.06-0.28-3.76,3.87-3.77c4.18,0.51,5.48,5.05,2.27,3.66c0,0-1.04-1.83-2.25-1.53
	c0,0-1.67,0.16-2.03,0.97c-0.36,4.75,4.53,4.81,4.6,4.83c4.66-0.34,4.63-5.94,4.56-5.54c0.78-8.47-8.18-7.8-7.62-7.83
	c-8.06,1.3-7.92,9.91-7.98,9.19c0.12,8.33,10.4,9.04,10.42,9.09c14.39,0.4,12.01-15.31,11.67-15.44
	c-1.23-8.09-11.67-8.84-11.89-8.78c-12.7,0.25-14.42,9.14-14.42,9.14L208.42,17.44"/>
<path class="st12" d="M106.83,4.83"/>
<defs>
	<filter id="Adobe_OpacityMaskFilter" filterUnits="userSpaceOnUse" x="132.87" y="30.82" width="63.29" height="225.72">
		<feColorMatrix  type="matrix" values="1 0 0 0 0  0 1 0 0 0  0 0 1 0 0  0 0 0 1 0"/>
	</filter>
</defs>
<mask maskUnits="userSpaceOnUse" x="132.87" y="30.82" width="63.29" height="225.72" id="SVGID_00000115512351699733712430000010674079189639089826_">
	<g class="st13">
		
			<linearGradient id="SVGID_00000075872452566781290520000008829051581184281481_" gradientUnits="userSpaceOnUse" x1="362.3591" y1="215.4303" x2="122.9608" y2="356.9466" gradientTransform="matrix(0.4018 -0.0752 0.1397 0.7464 2.0125 -32.4513)">
			<stop  offset="0" style="stop-color:#FFFFFF"/>
			<stop  offset="0.2645" style="stop-color:#999595"/>
			<stop  offset="0.5288" style="stop-color:#504D4B"/>
			<stop  offset="0.7184" style="stop-color:#2A2A28"/>
			<stop  offset="0.8145" style="stop-color:#1E1E1C"/>
		</linearGradient>
		<polygon style="fill:url(#SVGID_00000075872452566781290520000008829051581184281481_);" points="239.91,245.21 124.77,266.75 
			78.12,17.42 193.26,-4.12 		"/>
	</g>
</mask>
<g style="mask:url(#SVGID_00000115512351699733712430000010674079189639089826_);">
	<path class="st10" d="M134.18,45.95c0,0-0.71,174.7,0,198.86c0.71,24.16,13.04,0,13.04,0l0-198.86c0,0-0.15-6.61-6.52-6.61
		C140.7,39.34,134.18,38.98,134.18,45.95z"/>
	
		<linearGradient id="SVGID_00000067924100195484052270000000306001030628407949_" gradientUnits="userSpaceOnUse" x1="266.7864" y1="-125.8367" x2="280.1135" y2="-125.8367" gradientTransform="matrix(0.9999 -0.0102 0.0104 1.0227 -128.154 273.6844)">
		<stop  offset="1.385225e-07" style="stop-color:#D8CBB9"/>
		<stop  offset="0.011" style="stop-color:#DACDBB"/>
		<stop  offset="0.1229" style="stop-color:#E8DAC7"/>
		<stop  offset="0.2617" style="stop-color:#F3E4D1"/>
		<stop  offset="0.4572" style="stop-color:#F9EAD6"/>
		<stop  offset="1" style="stop-color:#FBEBD7"/>
	</linearGradient>
	
		<path style="fill:url(#SVGID_00000067924100195484052270000000306001030628407949_);stroke:#1E1E1C;stroke-width:2;stroke-linecap:round;stroke-linejoin:round;stroke-miterlimit:10;" d="
		M136.56,41.1c0,0,1.15,176.14,2.03,198.85c0.88,22.71,13.04-0.13,13.04-0.13L149.6,40.97c0,0-0.22-6.61-6.59-6.54
		C143.02,34.43,136.49,34.14,136.56,41.1z"/>
	<path class="st10" d="M155.09,43.23c0,0,0.93,160.55,1.86,182.75s13.04-0.13,13.04-0.13L168.13,43.1c0,0-0.21-6.07-6.58-6.01
		C161.54,37.09,155.02,36.83,155.09,43.23z"/>
	
		<linearGradient id="SVGID_00000071529777973781533060000006513887009858781595_" gradientUnits="userSpaceOnUse" x1="288.7502" y1="-135.9274" x2="302.0771" y2="-135.9274" gradientTransform="matrix(0.9999 -0.0102 9.580848e-03 0.9399 -128.2691 262.3928)">
		<stop  offset="1.385225e-07" style="stop-color:#D8CBB9"/>
		<stop  offset="0.011" style="stop-color:#DACDBB"/>
		<stop  offset="0.1229" style="stop-color:#E8DAC7"/>
		<stop  offset="0.2617" style="stop-color:#F3E4D1"/>
		<stop  offset="0.4572" style="stop-color:#F9EAD6"/>
		<stop  offset="1" style="stop-color:#FBEBD7"/>
	</linearGradient>
	
		<path style="fill:url(#SVGID_00000071529777973781533060000006513887009858781595_);stroke:#1E1E1C;stroke-width:2;stroke-linecap:round;stroke-linejoin:round;stroke-miterlimit:10;" d="
		M158.5,38.71c0,0,1,161.88,1.86,182.75s13.04-0.13,13.04-0.13l-1.86-182.75c0,0-0.21-6.07-6.58-6.01
		C164.96,32.57,158.44,32.31,158.5,38.71z"/>
	<path class="st10" d="M177.02,41.42c0,0,0.76,144.33,1.67,164.29c0.91,19.95,13.04-0.13,13.04-0.13l-1.67-164.29
		c0,0-0.21-5.46-6.58-5.39C183.48,35.89,176.96,35.66,177.02,41.42z"/>
	
		<linearGradient id="SVGID_00000175290305184484246090000009693690774456308154_" gradientUnits="userSpaceOnUse" x1="310.7004" y1="-148.261" x2="324.0275" y2="-148.261" gradientTransform="matrix(0.9999 -0.0102 8.612839e-03 0.845 -128.4019 249.374)">
		<stop  offset="1.385225e-07" style="stop-color:#D8CBB9"/>
		<stop  offset="0.011" style="stop-color:#DACDBB"/>
		<stop  offset="0.1229" style="stop-color:#E8DAC7"/>
		<stop  offset="0.2617" style="stop-color:#F3E4D1"/>
		<stop  offset="0.4572" style="stop-color:#F9EAD6"/>
		<stop  offset="1" style="stop-color:#FBEBD7"/>
	</linearGradient>
	
		<path style="fill:url(#SVGID_00000175290305184484246090000009693690774456308154_);stroke:#1E1E1C;stroke-width:2;stroke-linecap:round;stroke-linejoin:round;stroke-miterlimit:10;" d="
		M180.44,37.35c0,0,0.84,145.53,1.67,164.29s13.04-0.13,13.04-0.13l-1.67-164.29c0,0-0.21-5.46-6.58-5.39
		C186.9,31.82,180.38,31.59,180.44,37.35z"/>
</g>
</svg>
